<svg xmlns="http://www.w3.org/2000/svg" viewBox="0 0 400 500" preserveAspectRatio="xMidYMid slice">
  <rect width="400" height="500" fill="#d4e4dc"/>
  <rect width="400" height="500" fill="#1a4d5c" opacity="0.08"/>
  <g transform="translate(200,260)" fill="none" stroke="#0a1f2e" stroke-width="0.75" opacity="0.4" stroke-linecap="round">
    <path d="M -120,0 q 20,-14 40,0 t 40,0 t 40,0 t 40,0 t 40,0 t 40,0"/>
    <path d="M -120,30 q 20,-14 40,0 t 40,0 t 40,0 t 40,0 t 40,0 t 40,0" opacity="0.6"/>
    <path d="M -120,60 q 20,-14 40,0 t 40,0 t 40,0 t 40,0 t 40,0 t 40,0" opacity="0.4"/>
    <path d="M -120,90 q 20,-14 40,0 t 40,0 t 40,0 t 40,0 t 40,0 t 40,0" opacity="0.25"/>
  </g>
  <g transform="translate(200,180)" font-family="Georgia, serif" font-style="italic" text-anchor="middle">
    <text font-size="38" fill="#0a1f2e" opacity="0.7">portrait</text>
    <text y="44" font-size="38" fill="#0a1f2e" opacity="0.7">coming soon</text>
  </g>
</svg>
